<mxfile host="Electron" modified="2024-04-20T20:13:26.011Z" agent="Mozilla/5.0 (Windows NT 10.0; Win64; x64) AppleWebKit/537.36 (KHTML, like Gecko) draw.io/24.2.5 Chrome/120.0.6099.109 Electron/28.1.0 Safari/537.36" etag="WqtEGheBLSwBtELypn9B" version="24.2.5" type="device">
  <diagram name="Página-1" id="FZn8Qwt0K2wDBtm_QyLl">
    <mxGraphModel dx="1420" dy="830" grid="1" gridSize="10" guides="1" tooltips="1" connect="1" arrows="1" fold="1" page="1" pageScale="1" pageWidth="827" pageHeight="1169" background="#CCE5FF" math="0" shadow="0">
      <root>
        <mxCell id="0" />
        <mxCell id="1" parent="0" />
        <mxCell id="C_phFlZkf9f7-bHQfXDY-1" value="&lt;b style=&quot;font-size: 17px;&quot;&gt;&lt;font style=&quot;font-size: 17px;&quot; color=&quot;#000000&quot; face=&quot;Comic Sans MS&quot;&gt;3 Hacer un programa para mostrar por pantalla los números del 20 al 1 en orden decreciente.&lt;br&gt;Importante: El programa no tiene ningún ingreso de datos.&lt;/font&gt;&lt;/b&gt;" style="text;whiteSpace=wrap;html=1;fontFamily=Architects Daughter;fontSource=https%3A%2F%2Ffonts.googleapis.com%2Fcss%3Ffamily%3DArchitects%2BDaughter;" vertex="1" parent="1">
          <mxGeometry x="60" y="10" width="750" height="70" as="geometry" />
        </mxCell>
        <mxCell id="C_phFlZkf9f7-bHQfXDY-27" value="" style="group;aspect=fixed;" vertex="1" connectable="0" parent="1">
          <mxGeometry x="250" y="140" width="230" height="473" as="geometry" />
        </mxCell>
        <mxCell id="C_phFlZkf9f7-bHQfXDY-6" value="" style="group;aspect=fixed;" vertex="1" connectable="0" parent="C_phFlZkf9f7-bHQfXDY-27">
          <mxGeometry x="90" width="50" height="50" as="geometry" />
        </mxCell>
        <mxCell id="C_phFlZkf9f7-bHQfXDY-2" value="" style="strokeWidth=2;html=1;shape=mxgraph.flowchart.start_2;whiteSpace=wrap;rounded=0;labelBackgroundColor=none;strokeColor=#000000;align=center;verticalAlign=middle;fontFamily=Helvetica;fontSize=12;fontColor=default;fillColor=#d5e8d4;" vertex="1" parent="C_phFlZkf9f7-bHQfXDY-6">
          <mxGeometry width="50" height="50" as="geometry" />
        </mxCell>
        <mxCell id="C_phFlZkf9f7-bHQfXDY-4" value="&lt;b&gt;&lt;font style=&quot;font-size: 22px;&quot; color=&quot;#000000&quot; face=&quot;Comic Sans MS&quot;&gt;I&lt;/font&gt;&lt;/b&gt;" style="text;strokeColor=none;align=center;fillColor=none;html=1;verticalAlign=middle;whiteSpace=wrap;rounded=0;fontFamily=Architects Daughter;fontSource=https%3A%2F%2Ffonts.googleapis.com%2Fcss%3Ffamily%3DArchitects%2BDaughter;" vertex="1" parent="C_phFlZkf9f7-bHQfXDY-6">
          <mxGeometry x="5" y="10" width="40" height="30" as="geometry" />
        </mxCell>
        <mxCell id="C_phFlZkf9f7-bHQfXDY-7" value="" style="group;aspect=fixed;" vertex="1" connectable="0" parent="C_phFlZkf9f7-bHQfXDY-27">
          <mxGeometry x="90" y="423" width="50" height="50" as="geometry" />
        </mxCell>
        <mxCell id="C_phFlZkf9f7-bHQfXDY-3" value="" style="strokeWidth=2;html=1;shape=mxgraph.flowchart.start_2;whiteSpace=wrap;rounded=0;labelBackgroundColor=none;strokeColor=#000000;align=center;verticalAlign=middle;fontFamily=Helvetica;fontSize=12;fontColor=default;fillColor=#d5e8d4;" vertex="1" parent="C_phFlZkf9f7-bHQfXDY-7">
          <mxGeometry width="50" height="50" as="geometry" />
        </mxCell>
        <mxCell id="C_phFlZkf9f7-bHQfXDY-5" value="&lt;b&gt;&lt;font style=&quot;font-size: 22px;&quot; color=&quot;#000000&quot; face=&quot;Comic Sans MS&quot;&gt;F&lt;/font&gt;&lt;/b&gt;" style="text;strokeColor=none;align=center;fillColor=none;html=1;verticalAlign=middle;whiteSpace=wrap;rounded=0;fontFamily=Architects Daughter;fontSource=https://fonts.googleapis.com/css?family=Architects+Daughter;" vertex="1" parent="C_phFlZkf9f7-bHQfXDY-7">
          <mxGeometry x="5" y="10" width="40" height="30" as="geometry" />
        </mxCell>
        <mxCell id="C_phFlZkf9f7-bHQfXDY-10" value="" style="group;aspect=fixed;" vertex="1" connectable="0" parent="C_phFlZkf9f7-bHQfXDY-27">
          <mxGeometry x="30" y="80" width="170" height="40" as="geometry" />
        </mxCell>
        <mxCell id="C_phFlZkf9f7-bHQfXDY-8" value="" style="rounded=0;whiteSpace=wrap;html=1;labelBackgroundColor=none;strokeColor=#0f100e;strokeWidth=2;align=center;verticalAlign=middle;fontFamily=Helvetica;fontSize=12;fontColor=default;fillColor=#d5e8d4;" vertex="1" parent="C_phFlZkf9f7-bHQfXDY-10">
          <mxGeometry x="15" y="5" width="140" height="30" as="geometry" />
        </mxCell>
        <mxCell id="C_phFlZkf9f7-bHQfXDY-9" value="&lt;font face=&quot;Comic Sans MS&quot; color=&quot;#000000&quot;&gt;&lt;span style=&quot;font-size: 16px;&quot;&gt;&lt;b&gt;int num = 20&lt;/b&gt;&lt;/span&gt;&lt;/font&gt;" style="text;strokeColor=none;align=center;fillColor=none;html=1;verticalAlign=middle;whiteSpace=wrap;rounded=0;fontFamily=Architects Daughter;fontSource=https%3A%2F%2Ffonts.googleapis.com%2Fcss%3Ffamily%3DArchitects%2BDaughter;" vertex="1" parent="C_phFlZkf9f7-bHQfXDY-10">
          <mxGeometry width="170" height="40" as="geometry" />
        </mxCell>
        <mxCell id="C_phFlZkf9f7-bHQfXDY-26" value="" style="line;strokeWidth=2;direction=south;html=1;hachureGap=4;fontFamily=Architects Daughter;fontSource=https://fonts.googleapis.com/css?family=Architects+Daughter;strokeColor=#000000;" vertex="1" parent="C_phFlZkf9f7-bHQfXDY-10">
          <mxGeometry x="80" y="-30" width="10" height="40" as="geometry" />
        </mxCell>
        <mxCell id="C_phFlZkf9f7-bHQfXDY-12" value="" style="group;aspect=fixed;strokeWidth=2;strokeColor=#080808;fillColor=none;" vertex="1" connectable="0" parent="C_phFlZkf9f7-bHQfXDY-27">
          <mxGeometry y="160" width="230" height="230" as="geometry" />
        </mxCell>
        <mxCell id="C_phFlZkf9f7-bHQfXDY-13" value="" style="whiteSpace=wrap;html=1;aspect=fixed;rounded=0;labelBackgroundColor=none;strokeColor=#1A1A1A;strokeWidth=3;align=center;verticalAlign=middle;fontFamily=Helvetica;fontSize=12;fontColor=default;fillColor=#d5e8d4;" vertex="1" parent="C_phFlZkf9f7-bHQfXDY-12">
          <mxGeometry width="230.00000000000003" height="230.00000000000003" as="geometry" />
        </mxCell>
        <mxCell id="C_phFlZkf9f7-bHQfXDY-14" value="" style="edgeStyle=none;orthogonalLoop=1;jettySize=auto;html=1;rounded=0;strokeColor=#000000;fontFamily=Helvetica;fontSize=12;fontColor=default;fillColor=#B2C9AB;startArrow=none;startFill=0;endArrow=none;endFill=0;endSize=7;strokeWidth=2;" edge="1" parent="C_phFlZkf9f7-bHQfXDY-12">
          <mxGeometry width="80" relative="1" as="geometry">
            <mxPoint x="230.00000000000003" y="37.096774193548384" as="sourcePoint" />
            <mxPoint y="37.096774193548384" as="targetPoint" />
            <Array as="points" />
          </mxGeometry>
        </mxCell>
        <mxCell id="C_phFlZkf9f7-bHQfXDY-15" value="&lt;font size=&quot;1&quot; face=&quot;Comic Sans MS&quot; color=&quot;#000000&quot;&gt;&lt;b style=&quot;font-size: 18px;&quot;&gt;num &amp;gt;= 1&lt;/b&gt;&lt;/font&gt;" style="text;strokeColor=none;align=center;fillColor=none;html=1;verticalAlign=middle;whiteSpace=wrap;rounded=0;fontFamily=Architects Daughter;fontSource=https://fonts.googleapis.com/css?family=Architects+Daughter;" vertex="1" parent="C_phFlZkf9f7-bHQfXDY-12">
          <mxGeometry x="66" y="4" width="100" height="30" as="geometry" />
        </mxCell>
        <mxCell id="C_phFlZkf9f7-bHQfXDY-19" value="" style="group;aspect=fixed;" vertex="1" connectable="0" parent="C_phFlZkf9f7-bHQfXDY-12">
          <mxGeometry x="56" y="70" width="120" height="40" as="geometry" />
        </mxCell>
        <mxCell id="C_phFlZkf9f7-bHQfXDY-16" value="" style="shape=trapezoid;perimeter=trapezoidPerimeter;whiteSpace=wrap;html=1;fixedSize=1;rounded=0;labelBackgroundColor=none;strokeColor=#0F140C;strokeWidth=2;align=center;verticalAlign=middle;fontFamily=Helvetica;fontSize=12;fontColor=default;fillColor=#d5e8d4;" vertex="1" parent="C_phFlZkf9f7-bHQfXDY-19">
          <mxGeometry width="120" height="40" as="geometry" />
        </mxCell>
        <mxCell id="C_phFlZkf9f7-bHQfXDY-17" value="&lt;font size=&quot;1&quot; face=&quot;Comic Sans MS&quot; color=&quot;#000000&quot;&gt;&lt;b style=&quot;font-size: 18px;&quot;&gt;num&lt;/b&gt;&lt;/font&gt;" style="text;strokeColor=none;align=center;fillColor=none;html=1;verticalAlign=middle;whiteSpace=wrap;rounded=0;fontFamily=Architects Daughter;fontSource=https://fonts.googleapis.com/css?family=Architects+Daughter;" vertex="1" parent="C_phFlZkf9f7-bHQfXDY-19">
          <mxGeometry x="10" y="5" width="100" height="30" as="geometry" />
        </mxCell>
        <mxCell id="C_phFlZkf9f7-bHQfXDY-22" value="" style="group;aspect=fixed;" vertex="1" connectable="0" parent="C_phFlZkf9f7-bHQfXDY-12">
          <mxGeometry x="64.5" y="140" width="103" height="40" as="geometry" />
        </mxCell>
        <mxCell id="C_phFlZkf9f7-bHQfXDY-20" value="" style="rounded=0;whiteSpace=wrap;html=1;labelBackgroundColor=none;strokeColor=#0f100e;strokeWidth=2;align=center;verticalAlign=middle;fontFamily=Helvetica;fontSize=12;fontColor=default;fillColor=#d5e8d4;" vertex="1" parent="C_phFlZkf9f7-bHQfXDY-22">
          <mxGeometry width="100" height="40" as="geometry" />
        </mxCell>
        <mxCell id="C_phFlZkf9f7-bHQfXDY-21" value="&lt;font size=&quot;1&quot; face=&quot;Comic Sans MS&quot; color=&quot;#000000&quot;&gt;&lt;b style=&quot;font-size: 18px;&quot;&gt;num--&lt;/b&gt;&lt;/font&gt;" style="text;strokeColor=none;align=center;fillColor=none;html=1;verticalAlign=middle;whiteSpace=wrap;rounded=0;fontFamily=Architects Daughter;fontSource=https://fonts.googleapis.com/css?family=Architects+Daughter;" vertex="1" parent="C_phFlZkf9f7-bHQfXDY-22">
          <mxGeometry x="3" y="4" width="100" height="30" as="geometry" />
        </mxCell>
        <mxCell id="C_phFlZkf9f7-bHQfXDY-24" value="" style="line;strokeWidth=2;direction=south;html=1;hachureGap=4;fontFamily=Architects Daughter;fontSource=https://fonts.googleapis.com/css?family=Architects+Daughter;strokeColor=#000000;" vertex="1" parent="C_phFlZkf9f7-bHQfXDY-12">
          <mxGeometry x="111" y="110" width="10" height="30" as="geometry" />
        </mxCell>
        <mxCell id="C_phFlZkf9f7-bHQfXDY-23" value="" style="line;strokeWidth=2;direction=south;html=1;hachureGap=4;fontFamily=Architects Daughter;fontSource=https://fonts.googleapis.com/css?family=Architects+Daughter;strokeColor=#000000;" vertex="1" parent="C_phFlZkf9f7-bHQfXDY-27">
          <mxGeometry x="110" y="113" width="10" height="50" as="geometry" />
        </mxCell>
        <mxCell id="C_phFlZkf9f7-bHQfXDY-25" value="" style="line;strokeWidth=2;direction=south;html=1;hachureGap=4;fontFamily=Architects Daughter;fontSource=https://fonts.googleapis.com/css?family=Architects+Daughter;strokeColor=#000000;" vertex="1" parent="C_phFlZkf9f7-bHQfXDY-27">
          <mxGeometry x="110" y="390" width="10" height="30" as="geometry" />
        </mxCell>
      </root>
    </mxGraphModel>
  </diagram>
</mxfile>
